2014048_C4_01_grf
version=1
nRows=15
nColumns=19
inDegrees=no
endheader
time	ground_force_1_vx	ground_force_1_vy	ground_force_1_vz	ground_force_1_px	ground_force_1_py	ground_force_1_pz	ground_force_1_mx	ground_force_1_my	ground_force_1_mz	ground_force_2_vx	ground_force_2_vy	ground_force_2_vz	ground_force_2_px	ground_force_2_py	ground_force_2_pz	ground_force_2_mx	ground_force_2_my	ground_force_2_mz
      0.93000000	      0.00000000	      0.00000000	      0.00000000	      0.00000000	      0.00000000	      0.00000000	      0.00000000	      0.00000000	      0.00000000	    -20.11920512	    547.50406742	     27.93204971	      0.81049862	     -0.00200000	     -0.31197984	     -0.00000000	      0.81197341	      0.00000000
      0.93100000	      0.00000000	      0.00000000	      0.00000000	      0.00000000	      0.00000000	      0.00000000	      0.00000000	      0.00000000	      0.00000000	    -19.74072028	    546.24614120	     27.74028946	      0.81057709	     -0.00200000	     -0.31201566	     -0.00000000	      0.80029234	      0.00000000
      0.93200000	      0.00000000	      0.00000000	      0.00000000	      0.00000000	      0.00000000	      0.00000000	      0.00000000	      0.00000000	      0.00000000	    -19.36172321	    545.00859976	     27.55146846	      0.81065581	     -0.00200000	     -0.31205226	      0.00000000	      0.78848230	      0.00000000
      0.93300000	      0.00000000	      0.00000000	      0.00000000	      0.00000000	      0.00000000	      0.00000000	      0.00000000	      0.00000000	      0.00000000	    -18.98209006	    543.79719496	     27.36654971	      0.81073488	     -0.00200000	     -0.31208986	      0.00000000	      0.77652228	     -0.00000000
      0.93400000	      0.00000000	      0.00000000	      0.00000000	      0.00000000	      0.00000000	      0.00000000	      0.00000000	      0.00000000	      0.00000000	    -18.60195585	    542.60712862	     27.18492784	      0.81081423	     -0.00200000	     -0.31212827	      0.00000000	      0.76445029	      0.00000000
      0.93500000	      0.00000000	      0.00000000	      0.00000000	      0.00000000	      0.00000000	      0.00000000	      0.00000000	      0.00000000	      0.00000000	    -18.22121255	    541.44430161	     27.00764779	      0.81089397	     -0.00200000	     -0.31216770	      0.00000000	      0.75224801	      0.00000000
      0.93600000	      0.00000000	      0.00000000	      0.00000000	      0.00000000	      0.00000000	      0.00000000	      0.00000000	      0.00000000	      0.00000000	    -17.83998683	    540.30370712	     26.83400922	      0.81097404	     -0.00200000	     -0.31220795	      0.00000000	      0.73995034	      0.00000000
      0.93700000	      0.00000000	      0.00000000	      0.00000000	      0.00000000	      0.00000000	      0.00000000	      0.00000000	      0.00000000	      0.00000000	    -17.45817531	    539.19130564	     26.66511480	      0.81105456	     -0.00200000	     -0.31224923	      0.00000000	      0.72754349	      0.00000000
      0.93800000	      0.00000000	      0.00000000	      0.00000000	      0.00000000	      0.00000000	      0.00000000	      0.00000000	      0.00000000	      0.00000000	    -17.07591861	    538.10185194	     26.50014497	      0.81113548	     -0.00200000	     -0.31229135	      0.00000000	      0.71505759	      0.00000000
      0.93900000	      0.00000000	      0.00000000	      0.00000000	      0.00000000	      0.00000000	      0.00000000	      0.00000000	      0.00000000	      0.00000000	    -16.69315528	    537.04136610	     26.34022105	      0.81121696	     -0.00200000	     -0.31233453	      0.00000000	      0.70248505	      0.00000000
      0.94000000	      0.00000000	      0.00000000	      0.00000000	      0.00000000	      0.00000000	      0.00000000	      0.00000000	      0.00000000	      0.00000000	    -16.31002687	    536.00436449	     26.18443221	      0.81129893	     -0.00200000	     -0.31237858	      0.00000000	      0.68985430	      0.00000000
      0.94100000	      0.00000000	      0.00000000	      0.00000000	      0.00000000	      0.00000000	      0.00000000	      0.00000000	      0.00000000	      0.00000000	    -15.92651568	    534.99701619	     26.03391651	      0.81138158	     -0.00200000	     -0.31242370	      0.00000000	      0.67716395	      0.00000000
      0.94200000	      0.00000000	      0.00000000	      0.00000000	      0.00000000	      0.00000000	      0.00000000	      0.00000000	      0.00000000	      0.00000000	    -15.54276235	    534.01362896	     25.88768117	      0.81146481	     -0.00200000	     -0.31246969	      0.00000000	      0.66443511	      0.00000000
      0.94300000	      0.00000000	      0.00000000	      0.00000000	      0.00000000	      0.00000000	      0.00000000	      0.00000000	      0.00000000	      0.00000000	    -15.15880739	    533.06058049	     25.74685961	      0.81154884	     -0.00200000	     -0.31251675	      0.00000000	      0.65166780	      0.00000000
      0.94400000	      0.00000000	      0.00000000	      0.00000000	      0.00000000	      0.00000000	      0.00000000	      0.00000000	      0.00000000	      0.00000000	    -14.77478072	    532.13202953	     25.61040968	      0.81163356	     -0.00200000	     -0.31256464	      0.00000000	      0.63887555	      0.00000000
